#!OML:ASF H:\Pregnant\Project 1\Capture day 1\Session 1\femalepreg.ASF
:FULLY-SPECIFIED
:DEGREES
1054
root 4.14807 15.6692 18.9302 -517.605 3.75832 183.223
lowerback -13.8484 -1.68575 -12.66
upperback -5.50052 0.508548 -2.97905
thorax 1.8689 0.793266 4.04767
lowerneck -16.8727 3.08084 1.50168
upperneck 37.8564 -2.83873 6.54415
head 16.6357 -1.44116 1.67855
rclavicle -7.55382e-015 3.33958e-014
rhumerus -40.6877 -8.50436 -71.8202
rradius 35.6901
rwrist -0.835609
rhand -2.57296 -15.4766
rfingers 7.12502
rthumb 23.1237 -44.1088
lclavicle -7.55382e-015 3.33958e-014
lhumerus -27.8066 5.70611 64.5351
lradius 37.834
lwrist 50.3788
lhand -32.2703 -3.07423
lfingers 7.12502
lthumb -5.50969 26.8341
rfemur -51.0053 11.1481 14.5342
rtibia 38.6433
rfoot -13.4811 -12.4501
rtoes -1.16091
lfemur -32.0844 -5.65892 -18.2758
ltibia 22.2605
lfoot -7.01593 12.7295
ltoes -37.7346
1055
root 4.14496 15.6721 18.9138 -517.673 4.09381 183.104
lowerback -13.8741 -1.73034 -12.7214
upperback -5.4895 0.468537 -3.02623
thorax 1.90084 0.773082 4.02552
lowerneck -16.801 -1.45245 2.92648
upperneck 38.4554 -0.736414 4.27826
head 16.7626 2.15815 1.67366
rclavicle 1.68967e-014 -7.95139e-015
rhumerus -40.7697 -8.45028 -71.7984
rradius 36.0053
rwrist -1.06909
rhand -2.86767 -15.3613
rfingers 7.12502
rthumb 22.841 -44.0288
lclavicle 1.68967e-014 -7.95139e-015
lhumerus -27.8063 5.73763 64.643
lradius 37.8221
lwrist 50.5563
lhand -32.2324 -2.98031
lfingers 7.12502
lthumb -5.47315 26.929
rfemur -51.0819 11.1075 14.2403
rtibia 38.3567
rfoot -13.1431 -12.8548
rtoes -1.26543
lfemur -31.6274 -5.63769 -18.4786
ltibia 21.8047
lfoot -6.84542 12.9241
ltoes -37.678
1056
root 4.14286 15.6744 18.8974 -517.727 4.41284 182.975
lowerback -13.9076 -1.78304 -12.7883
upperback -5.48763 0.420654 -3.06823
thorax 1.92831 0.750511 4.01064
lowerneck -16.7477 -1.39764 2.961
upperneck 38.5398 -0.617737 4.2128
head 16.7913 2.20782 1.66454
rclavicle -2.5842e-015 9.22361e-014
rhumerus -40.8573 -8.40161 -71.7643
rradius 36.3126
rwrist -1.2892
rhand -3.16285 -15.2292
rfingers 7.12502
rthumb 22.5577 -43.9314
lclavicle -2.5842e-015 9.22361e-014
lhumerus -27.8229 5.71361 64.7794
lradius 37.7781
lwrist 50.6555
lhand -32.1929 -2.91826
lfingers 7.12502
lthumb -5.43502 26.992
rfemur -51.1785 11.0866 13.9293
rtibia 38.0815
rfoot -12.7969 -13.2803
rtoes -1.32743
lfemur -31.1893 -5.61642 -18.6864
ltibia 21.3456
lfoot -6.67816 13.0995
ltoes -37.6276
1057
root 4.14172 15.6762 18.8809 -517.767 4.71927 182.838
lowerback -13.9483 -1.84132 -12.8593
upperback -5.49582 0.367981 -3.10605
thorax 1.94971 0.727205 4.00153
lowerneck -16.6899 -1.34856 2.99488
upperneck 38.6319 -0.502093 4.14135
head 16.8232 2.25633 1.65282
rclavicle 2.98177e-015 -6.36111e-014
rhumerus -40.9546 -8.35184 -71.7226
rradius 36.6159
rwrist -1.50182
rhand -3.46172 -15.0902
rfingers 7.12502
rthumb 22.2708 -43.8269
lclavicle 2.98177e-015 -6.36111e-014
lhumerus -27.8546 5.63691 64.9426
lradius 37.7
lwrist 50.6788
lhand -32.1417 -2.88793
lfingers 7.12502
lthumb -5.38556 27.0236
rfemur -51.2941 11.0902 13.6006
rtibia 37.8148
rfoot -12.4466 -13.7193
rtoes -1.38245
lfemur -30.7706 -5.59009 -18.8993
ltibia 20.8855
lfoot -6.51768 13.254
ltoes -37.5785
1058
root 4.14149 15.6775 18.8644 -517.796 5.01695 182.694
lowerback -13.9955 -1.90203 -12.932
upperback -5.51318 0.314122 -3.14081
thorax 1.96498 0.704768 3.99631
lowerneck -16.626 -1.30632 3.02643
upperneck 38.7285 -0.39238 4.06725
head 16.8563 2.30253 1.63951
rclavicle -4.57205e-015 2.54444e-014
rhumerus -41.066 -8.29245 -71.6791
rradius 36.9233
rwrist -1.71863
rhand -3.76484 -14.9597
rfingers 7.12502
rthumb 21.9798 -43.7309
lclavicle -4.57205e-015 2.54444e-014
lhumerus -27.8973 5.51122 65.1316
lradius 37.5845
lwrist 50.6298
lhand -32.0711 -2.88859
lfingers 7.12502
lthumb -5.31738 27.0247
rfemur -51.4242 11.1231 13.2548
rtibia 37.5537
rfoot -12.0989 -14.1635
rtoes -1.46125
lfemur -30.3683 -5.55399 -19.1166
ltibia 20.426
lfoot -6.36749 13.3867
ltoes -37.5252
1059
root 4.14211 15.6786 18.8478 -517.818 5.30944 182.545
lowerback -14.047 -1.96175 -13.0038
upperback -5.53744 0.262602 -3.17379
thorax 1.97487 0.684556 3.99267
lowerneck -16.5559 -1.27137 3.05527
upperneck 38.8266 -0.29086 3.99291
head 16.8891 2.3455 1.62513
rclavicle 9.93923e-015 -6.67916e-014
rhumerus -41.1922 -8.22244 -71.637
rradius 37.236
rwrist -1.94583
rhand -4.0705 -14.8493
rfingers 7.12502
rthumb 21.6863 -43.6547
lclavicle 9.93923e-015 -6.67916e-014
lhumerus -27.9468 5.33926 65.3449
lradius 37.4302
lwrist 50.5145
lhand -31.9785 -2.91718
lfingers 7.12502
lthumb -5.22792 26.9983
rfemur -51.5612 11.1898 12.8934
rtibia 37.2953
rfoot -11.7629 -14.6026
rtoes -1.57627
lfemur -29.9757 -5.5049 -19.3375
ltibia 19.9671
lfoot -6.23081 13.4978
ltoes -37.4615
1060
root 4.14354 15.6794 18.8307 -517.84 5.59994 182.394
lowerback -14.1002 -2.01712 -13.0721
upperback -5.56485 0.216725 -3.20617
thorax 1.98145 0.667564 3.98855
lowerneck -16.4826 -1.24338 3.08193
upperneck 38.9241 -0.198892 3.91986
head 16.9211 2.3847 1.6099
rclavicle 8.94531e-015 -1.17681e-013
rhumerus -41.3299 -8.14608 -71.5972
rradius 37.5495
rwrist -2.18483
rhand -4.37478 -14.7653
rfingers 7.12502
rthumb 21.394 -43.6041
lclavicle 8.94531e-015 -1.17681e-013
lhumerus -27.9973 5.12543 65.5813
lradius 37.235
lwrist 50.3393
lhand -31.8659 -2.96943
lfingers 7.12502
lthumb -5.11925 26.9487
rfemur -51.6953 11.294 12.5191
rtibia 37.038
rfoot -11.4451 -15.0256
rtoes -1.72943
lfemur -29.5836 -5.44079 -19.561
ltibia 19.5087
lfoot -6.11008 13.589
ltoes -37.3829
1061
root 4.14576 15.6799 18.8132 -517.867 5.8904 182.242
lowerback -14.1519 -2.06608 -13.1358
upperback -5.59285 0.178094 -3.23781
thorax 1.98546 0.65414 3.98368
lowerneck -16.408 -1.22149 3.10627
upperneck 39.0196 -0.116228 3.84897
head 16.952 2.42011 1.59416
rclavicle -8.34896e-015 -2.22639e-014
rhumerus -41.4713 -8.07587 -71.5541
rradius 37.8467
rwrist -2.42454
rhand -4.67312 -14.704
rfingers 7.12502
rthumb 21.1075 -43.5752
lclavicle -8.34896e-015 -2.22639e-014
lhumerus -28.0468 4.87444 65.8399
lradius 36.9992
lwrist 50.1109
lhand -31.7411 -3.03788
lfingers 7.12502
lthumb -4.99871 26.8832
rfemur -51.8191 11.4365 12.1355
rtibia 36.7814
rfoot -11.1494 -15.4209
rtoes -1.9195
lfemur -29.1846 -5.36108 -19.786
ltibia 19.0503
lfoot -6.00619 13.6624
ltoes -37.2879
1062
root 4.14874 15.6803 18.795 -517.902 6.18218 182.09
lowerback -14.1997 -2.10739 -13.1941
upperback -5.61999 0.147545 -3.26874
thorax 1.987 0.644456 3.9778
lowerneck -16.334 -1.20479 3.12876
upperneck 39.1131 -0.042164 3.78067
head 16.9824 2.4521 1.5782
rclavicle -2.40529e-014 1.01778e-013
rhumerus -41.6061 -8.02908 -71.5005
rradius 38.1045
rwrist -2.64616
rhand -4.96109 -14.6542
rfingers 7.12502
rthumb 20.8308 -43.556
lclavicle -2.40529e-014 1.01778e-013
lhumerus -28.0949 4.59051 66.12
lradius 36.7248
lwrist 49.8365
lhand -31.6109 -3.11383
lfingers 7.12502
lthumb -4.87304 26.8101
rfemur -51.9279 11.6156 11.7463
rtibia 36.5262
rfoot -10.8766 -15.778
rtoes -2.14923
lfemur -28.7749 -5.26642 -20.0115
ltibia 18.5924
lfoot -5.91868 13.7209
ltoes -37.1787
1063
root 4.15247 15.6805 18.7762 -517.945 6.47587 181.939
lowerback -14.2425 -2.14073 -13.2463
upperback -5.6468 0.125061 -3.29837
thorax 1.98492 0.638557 3.97115
lowerneck -16.2612 -1.19294 3.1491
upperneck 39.2057 0.0240631 3.71503
head 17.0129 2.48102 1.56233
rclavicle 1.11319e-014 -5.88403e-014
rhumerus -41.7235 -8.0245 -71.4269
rradius 38.2952
rwrist -2.82502
rhand -5.23681 -14.5985
rfingers 7.12502
rthumb 20.5659 -43.5291
lclavicle 1.11319e-014 -5.88403e-014
lhumerus -28.1444 4.27837 66.4205
lradius 36.4146
lwrist 49.5225
lhand -31.4793 -3.18764
lfingers 7.12502
lthumb -4.74591 26.7392
rfemur -52.0212 11.8265 11.3559
rtibia 36.2742
rfoot -10.6243 -16.09
rtoes -2.43218
lfemur -28.3556 -5.15825 -20.2366
ltibia 18.137
lfoot -5.8456 13.7681
ltoes -37.0606
